# xmcd
#
# Track frame offsets:
#	150
#	21835
#	43965
#	56635
#	76447
#	102412
#	123751
#	134916
#	155071
#	179018
#	197390
#	219018
#	239339
#
# Disc length: 3426 seconds
#
# Revision: 0
# Processed by: cddbd v1.5.1PL0 Copyright (c) Steve Scherf et al.
# Submitted via: dBpowerAMP V4.0
#
DISCID=ba0d600d
DTITLE=Nate Myers - Rise Above It
DYEAR=2002
DGENRE=Blues
TTITLE0=Doctor Put Me Down On Milk (Blues for Doug)
TTITLE1=Mr. Know It All
TTITLE2=Automobile Blues
TTITLE3=Think a Little More
TTITLE4=You Know
TTITLE5=Talking 'Bout Mr. Johnson
TTITLE6=I Ain't Bound
TTITLE7=Rise Above It
TTITLE8=Places I Used To Go
TTITLE9=I Really Want To Know
TTITLE10=Move Away
TTITLE11=Took A Chance On Love
TTITLE12=Trying To Get Back Home
EXTD=Nate Myers is a musician in the central/ne Pennsylvania area. Burning Spade Records, 5557 Fodham Avenue, Harrisburg, PA 17111
EXTT0=
EXTT1=
EXTT2=
EXTT3=
EXTT4=
EXTT5=
EXTT6=
EXTT7=
EXTT8=
EXTT9=
EXTT10=
EXTT11=
EXTT12=
PLAYORDER=
